<svg xmlns="http://www.w3.org/2000/svg" width="1200" height="630" viewBox="0 0 1200 630" role="img" aria-labelledby="title desc"><title id="title">Med Handoff Card</title><desc id="desc">A warm paper medication handoff card and pill tray in cobalt and marigold ink.</desc><defs><pattern id="dots" width="16" height="16" patternUnits="userSpaceOnUse"><circle cx="3" cy="3" r="1.4" fill="#d8cdb5"/></pattern></defs><rect width="1200" height="630" fill="#f7f0df"/><rect width="1200" height="630" fill="url(#dots)"/><rect x="75" y="85" width="630" height="460" fill="#fffaf0" stroke="#142a36" stroke-width="8"/><rect x="75" y="85" width="630" height="62" fill="#142a36"/><text x="112" y="127" fill="#f7f0df" font-family="Georgia,serif" font-size="31" font-weight="700">MED HANDOFF CARD</text><text x="112" y="220" fill="#142a36" font-family="Georgia,serif" font-size="53" font-weight="700">Today’s handoff</text><g stroke="#142a36" stroke-width="6" fill="none"><path d="M113 272h500M113 348h500M113 424h500"/><path d="M158 299h370M158 375h290M158 451h330"/></g><g fill="#075a9b"><circle cx="128" cy="299" r="15"/><circle cx="128" cy="375" r="15"/></g><circle cx="128" cy="451" r="15" fill="#f2b84b" stroke="#142a36" stroke-width="5"/><g transform="translate(770 120) rotate(5)"><rect width="310" height="330" rx="24" fill="#075a9b" stroke="#142a36" stroke-width="8"/><g fill="#f7f0df" stroke="#142a36" stroke-width="5"><rect x="28" y="30" width="112" height="112" rx="16"/><rect x="170" y="30" width="112" height="112" rx="16"/><rect x="28" y="180" width="112" height="112" rx="16"/><rect x="170" y="180" width="112" height="112" rx="16"/></g></g><path d="M865 515l180-88" stroke="#f2b84b" stroke-width="22" stroke-linecap="round"/><text x="760" y="565" fill="#142a36" font-family="Arial,sans-serif" font-size="27" font-weight="700">A clear record for the next caregiver</text></svg>
